<svg width="26" height="31" viewBox="0 0 26 31" fill="none" xmlns="http://www.w3.org/2000/svg">
<path d="M0.866609 15.2964C0.882945 15.7538 0.907828 16.2105 0.941211 16.6663C1.03318 16.7997 1.21977 16.9759 1.58981 17.1815C2.20204 17.5216 3.12687 17.8288 4.30517 18.0831C6.6491 18.5891 9.81001 18.8477 12.9962 18.8478C14.711 18.8479 16.4186 18.7732 17.9955 18.6252C18.0517 18.6051 18.1113 18.5917 18.1735 18.5861C18.2316 18.5809 18.2888 18.5828 18.3441 18.5911C19.5647 18.4667 20.6995 18.2973 21.6889 18.0839C22.8677 17.8296 23.7932 17.5223 24.4063 17.182C24.4564 17.1542 24.5031 17.1269 24.5468 17.1002C24.5978 16.5005 24.6342 15.8991 24.6557 15.2965L24.6659 15.0119C24.6455 14.4409 24.6154 13.8761 24.5749 13.3164C23.8539 13.6109 22.9639 13.851 21.977 14.046C19.5048 14.5343 16.2405 14.7738 12.9993 14.7738C9.75813 14.7738 6.49378 14.5343 4.02164 14.046C2.81234 13.8071 1.74859 13.5005 0.962894 13.109C0.914531 13.7364 0.87936 14.3702 0.856445 15.0119L0.866609 15.2964Z" fill="#4579FF"/>
<path d="M17.5827 20.0956C16.3349 20.198 15.0271 20.2566 13.7136 20.2722V26.1977C14.873 26.1826 16.0193 26.1309 17.1077 26.0432C17.5334 23.7063 17.7222 22.2726 17.5827 20.0956Z" fill="#4579FF"/>
<path d="M7.94229 20.0544C9.33077 20.1824 10.8042 20.2546 12.285 20.2722V26.1977C10.9523 26.1804 9.63696 26.1147 8.40707 26.0015C7.98408 23.6745 7.79862 22.2416 7.94229 20.0544Z" fill="#4579FF"/>
<path d="M18.5855 25.8974C18.9754 23.7045 19.1519 22.1894 19.0052 19.9565C20.079 19.8336 21.0872 19.6751 21.9901 19.4803C22.8761 19.2892 23.6852 19.0582 24.3646 18.7799C24.0897 20.8653 23.6359 22.9237 23.0079 24.9321C22.4884 25.1428 21.8244 25.3359 21.0357 25.5041C20.2972 25.6615 19.4708 25.7928 18.5855 25.8974Z" fill="#4579FF"/>
<path d="M2.43344 24.6697C1.82502 22.6714 1.38846 20.6249 1.12847 18.5525C1.89448 18.9346 2.88805 19.2387 4.00376 19.4795C4.77431 19.6459 5.62157 19.7858 6.52094 19.8997C6.36892 22.143 6.5404 23.6579 6.92602 25.8364C6.22217 25.743 5.56115 25.6319 4.9587 25.5034C3.86929 25.271 3.01826 24.991 2.4576 24.6831L2.43344 24.6697Z" fill="#4579FF"/>
<path d="M3.03228 26.4683C3.17053 26.8503 3.31521 27.2302 3.46628 27.6078C3.77975 28.3915 4.35191 29.0606 5.13362 29.3789C7.27625 30.2513 9.18987 30.2508 12.4448 30.2499H13.0775C16.3325 30.2508 18.2461 30.2513 20.3887 29.3789C21.1704 29.0606 21.7426 28.3915 22.056 27.6078C22.1855 27.2842 22.3103 26.9588 22.4304 26.632C22.0831 26.7302 21.7159 26.8197 21.3336 26.9012C19.0348 27.3914 16.0031 27.631 12.9964 27.6309C9.98976 27.6307 6.95852 27.3908 4.66061 26.9005C4.07681 26.776 3.52806 26.6327 3.03228 26.4683Z" fill="#4579FF"/>
<path d="M1.11396 11.5343C1.21844 11.6164 1.36504 11.7111 1.57059 11.8155C2.18749 12.1289 3.11732 12.4112 4.29847 12.6445C4.98489 12.7801 5.74088 12.8963 6.54669 12.9928C6.45837 10.7196 6.45052 9.51494 6.96076 7.21196C6.37706 7.12208 5.82288 7.01754 5.30813 6.89818C4.25182 6.65324 3.31364 6.33525 2.62228 5.923C2.50117 5.85079 2.38158 5.77182 2.26695 5.68579C1.71716 7.61394 1.34323 9.54747 1.11396 11.5343Z" fill="#4579FF"/>
<path d="M12.285 13.3413C10.8063 13.3248 9.34551 13.2574 7.98213 13.1398C7.88704 10.7413 7.86827 9.67354 8.38332 7.39646C9.62402 7.52976 10.9506 7.60567 12.285 7.6256V13.3413Z" fill="#4579FF"/>
<path d="M13.7136 13.3413C15.1922 13.3248 16.6529 13.2574 18.0163 13.1398C18.1114 10.7413 18.1301 9.67355 17.6151 7.39646C16.3744 7.52976 15.0479 7.60567 13.7136 7.6256V13.3413Z" fill="#4579FF"/>
<path d="M13.0041 6.20236C15.7087 6.20208 18.3863 5.96598 20.3676 5.50654C21.3649 5.27529 22.138 4.99805 22.6445 4.69601C22.7469 4.63499 22.8318 4.57719 22.9022 4.52299C22.7531 4.0609 22.5937 3.59857 22.4233 3.13532C22.3013 3.22937 22.1732 3.31367 22.0449 3.38877C21.4193 3.755 20.575 4.03514 19.631 4.25005C17.7307 4.68262 15.2328 4.89286 12.7611 4.89286C10.2894 4.89286 7.79155 4.68262 5.89131 4.25005C4.94727 4.03514 4.10298 3.755 3.47734 3.38877C3.34905 3.31368 3.22103 3.22939 3.09903 3.13536C2.98199 3.45359 2.87009 3.77139 2.76319 4.08897C2.77721 4.1946 2.87407 4.40989 3.35391 4.69601C3.86045 4.99805 4.63358 5.27529 5.63083 5.50654C7.61218 5.96598 10.2898 6.20208 12.9944 6.20236L12.9993 6.20234L13.0041 6.20236Z" fill="#4579FF"/>
<path d="M19.4517 12.9928C20.2576 12.8963 21.0137 12.7801 21.7001 12.6445C22.8813 12.4112 23.8111 12.1289 24.428 11.8155L24.4392 11.8098C24.2231 9.81709 23.8637 7.87993 23.3297 5.95034C22.643 6.34934 21.7231 6.65868 20.6903 6.89818C20.1756 7.01754 19.6214 7.12208 19.0377 7.21197C19.5479 9.51496 19.54 10.7196 19.4517 12.9928Z" fill="#4579FF"/>
<path d="M3.74538 1.77135C3.79269 1.85396 3.90983 1.98662 4.19902 2.1559C4.64108 2.41467 5.32208 2.65535 6.2084 2.85712C7.96886 3.25787 10.3519 3.4643 12.7611 3.4643C15.1704 3.4643 17.5534 3.25787 19.3139 2.85712C20.2002 2.65535 20.8812 2.41467 21.3233 2.1559C21.6125 1.98659 21.7296 1.85393 21.7769 1.77132C20.4122 0.459773 15.163 0.249994 12.7612 0.25C10.3593 0.249994 5.11002 0.459777 3.74538 1.77135Z" fill="#4579FF"/>
</svg>
