<svg width="11" height="13" viewBox="0 0 11 13" fill="none" xmlns="http://www.w3.org/2000/svg">
<g id="Barrel icon">
<g id="Subtract" filter="url(#filter0_b_313_8274)">
<path d="M0.396644 6.51858C0.403178 6.70153 0.413131 6.88422 0.426485 7.06654C0.46327 7.1199 0.537906 7.19035 0.685925 7.27258C0.930816 7.40864 1.30075 7.53152 1.77207 7.63325C2.70964 7.83563 3.974 7.93907 5.2485 7.93914C5.9344 7.93917 6.61742 7.90927 7.24821 7.85009C7.27067 7.84204 7.29451 7.83668 7.31938 7.83445C7.34265 7.83236 7.36552 7.83312 7.38765 7.83645C7.8759 7.78666 8.32979 7.71891 8.72555 7.63354C9.19707 7.53182 9.5673 7.40893 9.81252 7.27279C9.83256 7.26167 9.85126 7.25076 9.8687 7.24008C9.88913 7.0002 9.90368 6.75962 9.91228 6.51858L9.91635 6.40474C9.90819 6.17634 9.89616 5.95042 9.87997 5.72657C9.59156 5.84437 9.23556 5.94041 8.84079 6.01839C7.85193 6.21372 6.5462 6.30952 5.24972 6.30952C3.95325 6.30952 2.64751 6.21372 1.65865 6.01839C1.17494 5.92284 0.749436 5.80018 0.435158 5.64359C0.415812 5.89456 0.401744 6.14809 0.392578 6.40474L0.396644 6.51858Z" fill="white"/>
<path d="M7.08309 8.43822C6.58396 8.47919 6.06083 8.50264 5.53542 8.50887V10.8791C5.99919 10.873 6.45773 10.8524 6.89308 10.8173C7.06335 9.8825 7.13889 9.30904 7.08309 8.43822Z" fill="white"/>
<path d="M3.22692 8.42174C3.78231 8.47294 4.37169 8.50185 4.96399 8.50887V10.8791C4.43093 10.8721 3.90478 10.8459 3.41283 10.8006C3.24363 9.8698 3.16945 9.29662 3.22692 8.42174Z" fill="white"/>
<path d="M7.48421 10.759C7.64018 9.88181 7.71075 9.27577 7.65208 8.3826C8.0816 8.33346 8.48486 8.27003 8.84605 8.19212C9.20045 8.11566 9.52407 8.02326 9.79584 7.91196C9.68589 8.74613 9.50435 9.56948 9.25316 10.3728C9.04536 10.4571 8.77977 10.5343 8.46429 10.6016C8.16889 10.6646 7.83833 10.7171 7.48421 10.759Z" fill="white"/>
<path d="M1.02338 10.2679C0.780009 9.46857 0.605382 8.64997 0.501388 7.82101C0.807791 7.97384 1.20522 8.09548 1.6515 8.19181C1.95972 8.25834 2.29863 8.31432 2.65838 8.35987C2.59757 9.25719 2.66616 9.86314 2.82041 10.7346C2.53887 10.6972 2.27446 10.6528 2.03348 10.6014C1.59772 10.5084 1.2573 10.3964 1.03304 10.2732L1.02338 10.2679Z" fill="white"/>
<path d="M1.26291 10.9873C1.31821 11.1401 1.37608 11.2921 1.43651 11.4431C1.5619 11.7566 1.79076 12.0242 2.10345 12.1516C2.9605 12.5005 3.72595 12.5003 5.02792 12.5H5.281C6.58298 12.5003 7.34843 12.5005 8.20548 12.1516C8.51817 12.0242 8.74703 11.7566 8.87242 11.4431C8.92421 11.3137 8.97412 11.1835 9.02214 11.0528C8.88326 11.0921 8.73636 11.1279 8.58346 11.1605C7.66391 11.3566 6.45123 11.4524 5.24856 11.4523C4.0459 11.4523 2.83341 11.3563 1.91424 11.1602C1.68072 11.1104 1.46123 11.0531 1.26291 10.9873Z" fill="white"/>
<path d="M0.495583 5.01373C0.537376 5.04658 0.596014 5.08445 0.678237 5.12622C0.924996 5.25156 1.29693 5.36447 1.76939 5.4578C2.04396 5.51203 2.34635 5.5585 2.66868 5.59712C2.63335 4.68783 2.63021 4.20598 2.8343 3.28478C2.60082 3.24883 2.37915 3.20702 2.17325 3.15927C1.75073 3.06129 1.37546 2.9341 1.09891 2.7692C1.05047 2.74032 1.00263 2.70873 0.956778 2.67431C0.736864 3.44558 0.587291 4.21899 0.495583 5.01373Z" fill="white"/>
<path d="M4.96399 5.73651C4.37253 5.72993 3.7882 5.70294 3.24285 5.65591C3.20482 4.69653 3.19731 4.26941 3.40333 3.35858C3.89961 3.4119 4.43025 3.44227 4.96399 3.45024V5.73651Z" fill="white"/>
<path d="M5.53542 5.73651C6.12686 5.72993 6.71117 5.70295 7.25651 5.65592C7.29454 4.69653 7.30205 4.26942 7.09604 3.35858C6.59977 3.4119 6.06914 3.44227 5.53542 3.45024V5.73651Z" fill="white"/>
<path d="M5.25164 2.88094C6.33347 2.88083 7.40451 2.78639 8.19704 2.60261C8.59594 2.51012 8.90519 2.39922 9.10781 2.2784C9.14874 2.254 9.1827 2.23087 9.21087 2.20919C9.15126 2.02436 9.08746 1.83943 9.01931 1.65413C8.97051 1.69175 8.91929 1.72547 8.86797 1.75551C8.61772 1.902 8.28 2.01406 7.90239 2.10002C7.14229 2.27305 6.14313 2.35714 5.15445 2.35714C4.16578 2.35714 3.16662 2.27305 2.40652 2.10002C2.02891 2.01406 1.69119 1.902 1.44093 1.75551C1.38962 1.72547 1.33841 1.69176 1.28961 1.65414C1.2428 1.78143 1.19803 1.90855 1.15527 2.03559C1.16089 2.07784 1.19963 2.16396 1.39156 2.2784C1.59418 2.39922 1.90343 2.51012 2.30233 2.60261C3.09487 2.78639 4.16592 2.88083 5.24777 2.88094L5.24971 2.88094L5.25164 2.88094Z" fill="white"/>
<path d="M7.83069 5.59713C8.15304 5.55851 8.45547 5.51204 8.73006 5.4578C9.20252 5.36447 9.57445 5.25156 9.82121 5.12622L9.82568 5.12394C9.73925 4.32684 9.59548 3.55197 9.38188 2.78014C9.10721 2.93973 8.73925 3.06347 8.32612 3.15927C8.12022 3.20702 7.89854 3.24883 7.66506 3.28479C7.86915 4.20598 7.86601 4.68783 7.83069 5.59713Z" fill="white"/>
<path d="M1.54815 1.10854C1.56707 1.14158 1.61393 1.19465 1.72961 1.26236C1.90643 1.36587 2.17883 1.46214 2.53336 1.54285C3.23754 1.70315 4.19076 1.78572 5.15445 1.78572C6.11815 1.78572 7.07136 1.70315 7.77555 1.54285C8.13007 1.46214 8.40248 1.36587 8.5793 1.26236C8.69499 1.19464 8.74185 1.14157 8.76076 1.10853C8.21489 0.583909 6.11521 0.499998 5.15446 0.5C4.19371 0.499998 2.09401 0.583911 1.54815 1.10854Z" fill="white"/>
</g>
</g>
<defs>
<filter id="filter0_b_313_8274" x="-2.10742" y="-2" width="14.5234" height="17" filterUnits="userSpaceOnUse" color-interpolation-filters="sRGB">
<feFlood flood-opacity="0" result="BackgroundImageFix"/>
<feGaussianBlur in="BackgroundImageFix" stdDeviation="1.25"/>
<feComposite in2="SourceAlpha" operator="in" result="effect1_backgroundBlur_313_8274"/>
<feBlend mode="normal" in="SourceGraphic" in2="effect1_backgroundBlur_313_8274" result="shape"/>
</filter>
</defs>
</svg>
