<svg width="31" height="31" viewBox="0 0 31 31" fill="none" xmlns="http://www.w3.org/2000/svg">
<path d="M22.4804 29.607C22.5545 29.6796 22.6646 29.7425 22.7847 29.7953C23.2018 29.9789 23.6764 29.8644 24.0616 29.621C26.319 28.1942 28.1895 26.2326 29.5075 23.91L29.5398 23.8531C29.7625 23.4606 29.8559 22.9889 29.6681 22.5786C29.6103 22.4524 29.5421 22.3364 29.4648 22.2606L26.7392 19.6064C26.4882 19.3603 26.0693 19.4767 25.9767 19.8183L24.6577 24.6844C24.5548 25.064 24.359 25.412 24.088 25.6971C23.4264 26.393 22.2877 25.7333 22.5404 24.8007L24.3892 17.9784C24.4785 17.6489 24.3835 17.2963 24.1415 17.0589L23.163 16.0991C22.6611 15.6068 21.8233 15.8396 21.6381 16.5229L19.1541 25.6874C19.0647 26.0169 19.1598 26.3696 19.4018 26.607L22.4804 29.607Z" fill="#4579FF"/>
<path d="M16.2475 23.5126C16.7495 24.005 17.5872 23.7721 17.7724 23.0888L20.2565 13.9243C20.3458 13.5948 20.2508 13.2421 20.0088 13.0048L19.0303 12.045C18.5284 11.5527 17.6907 11.7855 17.5055 12.4688L15.0214 21.6334C14.9321 21.9628 15.0271 22.3155 15.2691 22.5529L16.2475 23.5126Z" fill="#4579FF"/>
<path d="M8.48655 15.8914C8.7574 16.1618 9.19781 16.1561 9.46152 15.8787L10.85 14.4183C11.1808 14.0704 11.7502 14.4002 11.6237 14.8665L10.8159 17.8466C10.7713 18.0113 10.8188 18.1876 10.9398 18.3063L12.6715 20.0049C12.9224 20.2511 13.3413 20.1347 13.4339 19.793L16.2024 9.5792C16.286 9.27079 16.1914 9.0803 15.9618 8.86201L15.8163 8.72119C15.4202 8.33771 15.4092 7.70597 15.7917 7.3089L16.7192 6.34607C17.4842 5.55195 17.4622 4.28847 16.6699 3.52152L13.4383 0.39309C12.8905 -0.144247 12.0175 -0.128766 11.4885 0.427668L8.66948 3.39204L3.14186 9.2062L0.386995 12.104C-0.14201 12.6604 -0.12677 13.5471 0.421037 14.0844L3.55658 17.1198C4.35157 17.8894 5.62036 17.8672 6.38801 17.0704L7.51468 15.9008C7.77899 15.6265 8.21695 15.6222 8.48655 15.8914Z" fill="#4579FF"/>
</svg>
