<svg width="20" height="20" viewBox="0 0 20 20" fill="none" xmlns="http://www.w3.org/2000/svg">
<path id="Icon" d="M10 4.9V18.5M10 4.9H6.99464C6.55183 4.9 6.12715 4.72089 5.81403 4.40208C5.50091 4.08327 5.325 3.65087 5.325 3.2C5.325 2.74913 5.50091 2.31673 5.81403 1.99792C6.12715 1.67911 6.55183 1.5 6.99464 1.5C9.33214 1.5 10 4.9 10 4.9ZM10 4.9H13.0054C13.4482 4.9 13.8729 4.72089 14.186 4.40208C14.4991 4.08327 14.675 3.65087 14.675 3.2C14.675 2.74913 14.4991 2.31673 14.186 1.99792C13.8729 1.67911 13.4482 1.5 13.0054 1.5C10.6679 1.5 10 4.9 10 4.9ZM16.8 9.15V15.78C16.8 16.7321 16.8 17.2081 16.6147 17.5718C16.4517 17.8917 16.1917 18.1517 15.8718 18.3147C15.5081 18.5 15.0321 18.5 14.08 18.5L5.92 18.5C4.96791 18.5 4.49187 18.5 4.12822 18.3147C3.80834 18.1517 3.54827 17.8917 3.38529 17.5718C3.2 17.2081 3.2 16.7321 3.2 15.78V9.15M1.5 6.26L1.5 7.79C1.5 8.26604 1.5 8.50407 1.59264 8.68589C1.67414 8.84583 1.80417 8.97586 1.96411 9.05735C2.14593 9.15 2.38396 9.15 2.86 9.15L17.14 9.15C17.616 9.15 17.8541 9.15 18.0359 9.05736C18.1958 8.97586 18.3259 8.84583 18.4074 8.68589C18.5 8.50407 18.5 8.26604 18.5 7.79V6.26C18.5 5.78396 18.5 5.54593 18.4074 5.36411C18.3259 5.20417 18.1958 5.07414 18.0359 4.99265C17.8541 4.9 17.616 4.9 17.14 4.9L2.86 4.9C2.38396 4.9 2.14593 4.9 1.96411 4.99264C1.80417 5.07414 1.67414 5.20417 1.59264 5.36411C1.5 5.54593 1.5 5.78396 1.5 6.26Z" stroke="#4579FF" stroke-width="1.6" stroke-linecap="round" stroke-linejoin="round"/>
</svg>
