<svg width="23" height="20" viewBox="0 0 23 20" fill="none" xmlns="http://www.w3.org/2000/svg">
<path d="M15.5 1.96776C16.9817 2.70411 18 4.23314 18 6C18 7.76686 16.9817 9.29589 15.5 10.0322M17.5 15.2664C19.0115 15.9503 20.3725 17.065 21.5 18.5M1.5 18.5C3.44649 16.0226 6.08918 14.5 9 14.5C11.9108 14.5 14.5535 16.0226 16.5 18.5M13.5 6C13.5 8.48528 11.4853 10.5 9 10.5C6.51472 10.5 4.5 8.48528 4.5 6C4.5 3.51472 6.51472 1.5 9 1.5C11.4853 1.5 13.5 3.51472 13.5 6Z" stroke="#4579FF" stroke-width="2" stroke-linecap="round" stroke-linejoin="round"/>
</svg>
