<svg width="20" height="19" viewBox="0 0 20 19" fill="none" xmlns="http://www.w3.org/2000/svg">
<path d="M8 7.00224C8.1762 6.50136 8.52397 6.079 8.98173 5.80998C9.43949 5.54095 9.9777 5.4426 10.501 5.53237C11.0243 5.62213 11.499 5.89421 11.8409 6.30041C12.1829 6.70661 12.37 7.22072 12.3692 7.75168C12.3692 9.25056 10.1209 10 10.1209 10M10.1499 13H10.1599M10 18C14.6944 18 18.5 14.1944 18.5 9.5C18.5 4.80558 14.6944 1 10 1C5.30558 1 1.5 4.80558 1.5 9.5C1.5 10.45 1.65585 11.3636 1.94337 12.2166L1.96449 12.2768C2.79308 14.6402 4.6122 16.5239 6.94516 17.4345V17.4345C7.89321 17.7998 8.92322 18 10 18Z" stroke="#4579FF" stroke-width="2" stroke-linecap="round" stroke-linejoin="round"/>
</svg>
