<svg width="22" height="19" viewBox="0 0 22 19" fill="none" xmlns="http://www.w3.org/2000/svg">
<path id="Icon" d="M19.6756 10.1072C19.9198 9.89796 20.0418 9.79334 20.0865 9.66884C20.1258 9.55957 20.1258 9.44004 20.0865 9.33077C20.0418 9.20627 19.9198 9.10164 19.6756 8.8924L11.2049 1.63178C10.7847 1.27158 10.5746 1.09148 10.3967 1.08707C10.2421 1.08323 10.0944 1.15115 9.9967 1.27103C9.88428 1.40897 9.88428 1.68571 9.88428 2.23918V6.53444C7.7496 6.90789 5.79587 7.98956 4.34399 9.61367C2.7611 11.3843 1.88551 13.6757 1.88428 16.0508V16.6628C2.93362 15.3987 4.24378 14.3763 5.72504 13.6657C7.03097 13.0392 8.44269 12.6681 9.88428 12.5703V16.7604C9.88428 17.3139 9.88428 17.5906 9.9967 17.7286C10.0944 17.8485 10.2421 17.9164 10.3967 17.9125C10.5746 17.9081 10.7847 17.728 11.2049 17.3678L19.6756 10.1072Z" stroke="#4579FF" stroke-width="2" stroke-linecap="round" stroke-linejoin="round"/>
</svg>
