<svg width="31" height="31" viewBox="0 0 31 31" fill="none" xmlns="http://www.w3.org/2000/svg">
<path fill-rule="evenodd" clip-rule="evenodd" d="M30.3589 7.95351L24.189 1.78362C23.8108 1.40546 23.1967 1.40546 22.8173 1.78362L20.0752 4.5257C19.8041 4.79687 19.719 5.20181 19.8564 5.5593L21.1538 8.9325L13.2195 16.8668C12.6516 17.4347 12.6516 18.3552 13.2195 18.9231C13.7874 19.4909 14.7079 19.4909 15.2758 18.9231L23.2101 10.9888L26.5833 12.2862C26.9408 12.4237 27.3458 12.3373 27.6169 12.0674L30.359 9.32529C30.7372 8.94712 30.737 8.33288 30.3589 7.95351ZM23.449 9.00362L26.3653 10.1251C26.5637 10.2014 26.7884 10.1538 26.9388 10.0036L28.2276 8.71662C28.2697 8.67459 28.2698 8.60639 28.2277 8.56433L23.5839 3.92052C23.5405 3.87716 23.4697 3.87873 23.4283 3.92398L22.1571 5.31345C22.0193 5.46408 21.9786 5.67973 22.0519 5.87025L23.1399 8.6947C23.1946 8.83675 23.3069 8.94898 23.449 9.00362Z" fill="#4579FF"/>
<path d="M15.9639 19.6128C15.5067 20.07 14.8987 20.3229 14.2469 20.3229C13.6 20.3229 12.992 20.07 12.5299 19.6128C11.5863 18.6643 11.5863 17.1224 12.5299 16.1789L13.9015 14.8072L12.2721 13.1729L11.5234 12.4807C11.1176 12.1055 10.4892 12.1154 10.0856 12.4931C9.60424 12.9435 9.09226 13.4052 8.56774 13.8781C7.0235 15.2705 5.37052 16.761 4.07047 18.3509C4.40648 18.3742 4.74148 18.4117 5.07455 18.4635L6.44505 18.6763C9.88291 19.2103 13.0917 20.7313 15.6814 23.0545C16.1489 23.4739 16.5742 23.9382 16.951 24.4406L17.1431 24.6968L19.7092 22.0518C20.103 21.6459 20.0979 20.999 19.6977 20.5994L17.3355 18.241L15.9639 19.6128Z" fill="#4579FF"/>
<path d="M15.7096 25.3717C15.3937 24.9504 15.0372 24.5612 14.6452 24.2096C12.2793 22.0871 9.34773 20.6975 6.2069 20.2097L4.8364 19.9968C4.31127 19.9152 3.78063 19.8743 3.24921 19.8743H2.10676C1.29812 19.8743 0.642578 20.5298 0.642578 21.3385V25.526C0.642578 26.1688 0.83797 26.7659 1.17259 27.2612C1.3399 27.5088 1.542 27.731 1.77189 27.9207C2.30836 28.3635 2.99612 28.6294 3.746 28.6294H15.5159C15.8597 28.6294 16.1568 28.5053 16.3817 28.3079C16.8675 27.8816 17.0163 27.114 16.5707 26.5198C16.5707 26.5198 16.5707 26.5198 16.5707 26.5198L15.7096 25.3717Z" fill="#4579FF"/>
</svg>
